<?xml version="1.0" encoding="UTF-8"?>
<svg id="Layer_2" xmlns="http://www.w3.org/2000/svg" viewBox="0 0 775.45 432.02">
  <defs>
    <style>
      .cls-1 {
        fill: #0c0a0b;
      }
    </style>
  </defs>
  <g id="Layer_1-2" data-name="Layer_1">
    <g>
      <g>
        <path class="cls-1" d="M67.51,256.59v-74.73h118.74v-52.65h-118.74V58.52h132.23V0H0v315.11h199.74v-58.52H67.51Z"/>
        <path class="cls-1" d="M457.15,171.73c-10.96-13.93-27.82-23.93-50.65-29.92,15.01-4.79,26.34-12.29,34-22.51,7.66-10.19,11.49-23.72,11.49-40.52,0-24.61-8.49-43.88-25.45-57.84C409.59,6.98,383.99,0,349.78,0h-108.64v315.11h114.04c39.62,0,69.27-8.52,88.91-25.66,19.67-17.08,29.49-39.31,29.49-66.61,0-20.1-5.47-37.15-16.43-51.11ZM305.59,56.73h41.5c11.09,0,20.1,2.78,27.02,8.34,6.89,5.53,10.35,14.33,10.35,26.31s-3.52,21.46-10.59,27.45c-7.04,6.02-15.97,9.02-26.77,9.02h-41.5V56.73ZM391.65,246.25c-8.09,8.09-21,12.17-38.73,12.17h-47.34v-87.8h47.34c17.73,0,30.63,4.14,38.73,12.38,8.12,8.25,12.17,18.99,12.17,32.18s-4.05,22.98-12.17,31.07Z"/>
        <path class="cls-1" d="M650.78,142.21v52.68h62.35v1.73c0,19.92-5.81,35.36-17.36,46.32-11.55,10.96-27.58,16.31-48.05,16.03-22.94-.28-41.16-7.41-54.66-21.43v72.51c12.69,3.67,26.37,5.53,41.04,5.53,18.44,0,34.03-3,46.75-8.99,12.72-5.99,23.62-15.44,32.7-28.32v37.3h61.89v-173.37h-124.67ZM566.53,157.56c0-31.28,6.58-55.96,19.73-73.93,13.16-18,32.64-27.02,58.37-27.02,31.04,0,51.08,14.95,60.16,44.78h67.14c-4.97-33.35-19.15-58.58-42.55-75.72-23.44-17.11-52.1-25.66-86.04-25.66-28.38,0-53.49,6.21-75.29,18.65-21.8,12.45-38.76,30.51-50.89,54.2-12.17,23.72-18.22,51.94-18.22,84.71,0,30.54,4.88,57.19,14.67,79.98h79.46c-2.01-2.07-3.89-4.29-5.68-6.67-13.93-18.44-20.84-42.86-20.84-73.31Z"/>
      </g>
      <g>
        <path class="cls-1" d="M23.35,370.62h16.69l21.88,60.54h-13.58l-3.89-11.33h-25.51l-3.89,11.33H1.47l21.88-60.54ZM41.17,410.23l-9.08-26.38h-.78l-9.08,26.38h18.94Z"/>
        <path class="cls-1" d="M80.44,400.89c0-19.55,11.07-31.05,28.63-31.05,13.23,0,23.87,6.75,25.08,21.8h-12.63c-1.73-7.52-6.66-10.64-12.89-10.64-10.55,0-14.96,8.74-14.96,19.89s4.33,19.98,14.96,19.98c6.23,0,11.16-3.11,12.89-10.72h12.63c-1.21,15.14-11.85,21.88-25.25,21.88-17.38,0-28.45-11.5-28.45-31.14Z"/>
        <path class="cls-1" d="M157.24,400.89c0-19.55,11.07-31.05,28.63-31.05,13.23,0,23.87,6.75,25.08,21.8h-12.63c-1.73-7.52-6.66-10.64-12.89-10.64-10.55,0-14.96,8.74-14.96,19.89s4.32,19.98,14.96,19.98c6.23,0,11.16-3.11,12.89-10.72h12.63c-1.21,15.14-11.85,21.88-25.25,21.88-17.38,0-28.45-11.5-28.45-31.14Z"/>
        <path class="cls-1" d="M235.33,370.62h41.34v11.24h-28.37v13.58h25.77v10.12h-25.77v14.36h29.23v11.24h-42.21v-60.54Z"/>
        <path class="cls-1" d="M301.67,370.62h12.97v49.3h27.85v11.24h-40.82v-60.54Z"/>
        <path class="cls-1" d="M366.62,370.62h41.34v11.24h-28.37v13.58h25.77v10.12h-25.77v14.36h29.23v11.24h-42.21v-60.54Z"/>
        <path class="cls-1" d="M432.96,370.62h24.48c16.09,0,23.09,8.39,23.09,20.24,0,8.56-3.72,15.48-12.11,18.51l12.71,21.8h-12.8l-11.5-20.15h-10.9v20.15h-12.97v-60.54ZM467.21,390.85c0-5.45-3.11-8.99-10.21-8.99h-11.07v17.9h11.07c7.09,0,10.21-3.55,10.21-8.91Z"/>
        <path class="cls-1" d="M523.68,370.62h16.69l21.88,60.54h-13.58l-3.89-11.33h-25.51l-3.89,11.33h-13.58l21.88-60.54ZM541.5,410.23l-9.08-26.38h-.78l-9.08,26.38h18.94Z"/>
        <path class="cls-1" d="M591.83,382.12h-17.56v-11.5h48.09v11.5h-17.56v49.04h-12.97v-49.04Z"/>
        <path class="cls-1" d="M642.17,400.89c0-18.59,11.42-31.05,28.89-31.05s28.89,12.45,28.89,31.05-11.42,31.14-28.89,31.14-28.89-12.63-28.89-31.14ZM686.62,400.89c0-12.11-5.62-19.89-15.57-19.89s-15.57,7.78-15.57,19.89,5.62,19.98,15.57,19.98,15.57-7.96,15.57-19.98Z"/>
        <path class="cls-1" d="M724.94,370.62h24.48c16.09,0,23.09,8.39,23.09,20.24,0,8.56-3.72,15.48-12.11,18.51l12.71,21.8h-12.8l-11.5-20.15h-10.9v20.15h-12.97v-60.54ZM759.19,390.85c0-5.45-3.11-8.99-10.21-8.99h-11.07v17.9h11.07c7.09,0,10.21-3.55,10.21-8.91Z"/>
      </g>
    </g>
  </g>
</svg>